<svg xmlns="http://www.w3.org/2000/svg" id="Layer_1" data-name="Layer 1" viewBox="0 0 355.36 98.91">
    <defs>
        <style>
            .cls-1,
            .cls-2 {
                fill: #fff;
            }

            .cls-2,
            .cls-3 {
                fill-rule: evenodd;
            }

            .cls-3 {
                fill: #9dcb3b !important;
            }
        </style>
    </defs>
    <g>
        <polygon class="cls-3" points="37.38 42.05 46.74 48.8 66.52 36.86 67.2 36.44 71.47 33.87 72.08 33.49 74.84 31.83 72.4 34.02 71.87 34.5 68.06 37.93 67.48 38.44 46.66 57.15 37.38 42.05"></polygon>
        <path class="cls-2" d="m28.88,27.94c5.01-4.36,11.55-7,18.71-7,7.64,0,14.57,3,19.69,7.89l-5.17,3.12c-3.94-3.27-9-5.24-14.52-5.24-5.22,0-10.03,1.76-13.86,4.71-2.49,1.92-4.57,4.35-6.09,7.12-1.77,3.24-2.78,6.95-2.78,10.9,0,12.56,10.18,22.73,22.73,22.73s22.73-10.18,22.73-22.73c0-1.53-.15-3.02-.44-4.47l4.83-4.34c.9,2.77,1.39,5.74,1.39,8.81,0,15.75-12.76,28.51-28.51,28.51-12.86,0-23.72-8.51-27.28-20.2-1.19-.21-2.1-1.25-2.1-2.5v-11.62c0-1.25.91-2.29,2.1-2.5.89-2.92,2.23-5.64,3.95-8.08,1.33-1.89,2.89-3.61,4.62-5.13Z"></path>
        <path class="cls-2" d="m18.21,51.81h-2.07c-.23,1.49-1.5,2.64-3.05,2.67h-.07s-7.02,0-7.02,0h-2.86C1.44,54.48.03,53.1,0,51.4v-.05s0,0,0,0v-3.77h0s0-.06,0-.06h0c.03-1.71,1.44-3.09,3.15-3.09h9.94c1.54.03,2.82,1.19,3.05,2.68h2.07v4.71Z"></path>
        <path class="cls-3" d="m96.29,40.76c.5,2.82.76,5.73.76,8.7s-.26,5.87-.76,8.7l-7.97,1.16c-1.03,4.29-2.73,8.31-4.96,11.98l4.82,6.46c-1.65,2.35-3.52,4.59-5.61,6.68-2.1,2.1-4.34,3.97-6.68,5.61l-6.46-4.82c-3.66,2.23-7.69,3.93-11.98,4.96l-1.16,7.97c-2.82.5-5.73.76-8.7.76s-5.87-.26-8.7-.76l-1.16-7.97c-4.29-1.03-8.31-2.73-11.98-4.96l-6.46,4.82c-2.35-1.65-4.59-3.52-6.68-5.61-2.1-2.1-3.97-4.34-5.61-6.68l4.82-6.46c-1.95-3.19-3.48-6.65-4.53-10.33h5.92s.52-.03.52-.03c.43.53.91,1.01,1.45,1.43,5.13,12.87,17.7,21.96,32.4,21.96,19.25,0,34.86-15.61,34.86-34.86S66.85,14.59,47.59,14.59c-14.7,0-27.27,9.09-32.4,21.96-.54.42-1.02.9-1.45,1.43l-.52-.02h-.2s-5.72,0-5.72,0c1.05-3.67,2.58-7.14,4.53-10.33l-4.82-6.46c1.65-2.35,3.52-4.59,5.61-6.68,2.1-2.1,4.34-3.97,6.68-5.61l6.46,4.82c3.66-2.23,7.69-3.93,11.98-4.96l1.16-7.97c2.82-.5,5.73-.76,8.7-.76s5.87.26,8.7.76l1.16,7.97c4.29,1.03,8.31,2.73,11.98,4.96l6.46-4.82c2.35,1.65,4.59,3.52,6.68,5.61,2.1,2.1,3.97,4.34,5.61,6.68l-4.82,6.46c2.23,3.66,3.93,7.69,4.96,11.98l7.97,1.16Z"></path>
    </g>
    <g>
        <path class="cls-1" d="m168.86,34.63h-19.89v44.27h-15.98v-44.27h-20.06v-13.98h55.92v13.98Z"></path>
        <path class="cls-1" d="m217.63,42.54c6.66,0,12.65,5.66,12.65,12.65v11.07c0,6.66-5.66,12.65-12.65,12.65h-44.11v-13.98h37.78c1.75,0,3-1.33,3-3.08v-2.16c0-1.91-1.25-3.16-3-3.16h-25.88c-6.74,0-12.73-6.08-12.73-13.15v-10.07c0-6.66,5.66-12.65,12.73-12.65h42.44v13.98h-36.2c-1.75,0-3,1.17-3,3.08v1.83c0,1.66,1.25,3,3,3h25.96Z"></path>
        <path class="cls-1" d="m289.86,78.91h-50.27V20.65h50.27v13.98h-34.29v7.66h27.88v13.98h-27.88v8.65h34.29v13.98Z"></path>
        <path class="cls-1" d="m355.36,42.46v36.45h-43.86c-6.66,0-12.73-5.66-12.73-12.65v-32.87c0-6.74,5.66-12.73,12.73-12.73h42.19v13.98h-35.37c-2,0-3.58,1.58-3.58,3.58v23.14c0,2,1.58,3.58,3.58,3.58h21.64v-8.49h-14.4v-13.98h29.79Z"></path>
    </g>
</svg>